<?xml version="1.0" encoding="UTF-8" standalone="no"?>
<!-- Created with Inkscape (http://www.inkscape.org/) -->

<svg
   xmlns:dc="http://purl.org/dc/elements/1.1/"
   xmlns:cc="http://creativecommons.org/ns#"
   xmlns:rdf="http://www.w3.org/1999/02/22-rdf-syntax-ns#"
   xmlns:svg="http://www.w3.org/2000/svg"
   xmlns="http://www.w3.org/2000/svg"
   xmlns:sodipodi="http://sodipodi.sourceforge.net/DTD/sodipodi-0.dtd"
   xmlns:inkscape="http://www.inkscape.org/namespaces/inkscape"
   width="210mm"
   height="210mm"
   viewBox="0 0 210 210"
   version="1.1"
   id="svg8"
   inkscape:version="0.92.3 (2405546, 2018-03-11)"
   sodipodi:docname="logo.svg"
   inkscape:export-filename="D:\Downloads\logo.png"
   inkscape:export-xdpi="268.88684"
   inkscape:export-ydpi="268.88684">
  <defs
     id="defs2" />
  <sodipodi:namedview
     id="base"
     pagecolor="#ffffff"
     bordercolor="#666666"
     borderopacity="1.0"
     inkscape:pageopacity="0.0"
     inkscape:pageshadow="2"
     inkscape:zoom="0.98994949"
     inkscape:cx="561.08659"
     inkscape:cy="411.14988"
     inkscape:document-units="mm"
     inkscape:current-layer="layer1"
     showgrid="false"
     inkscape:window-width="2560"
     inkscape:window-height="1377"
     inkscape:window-x="1912"
     inkscape:window-y="-8"
     inkscape:window-maximized="1" />
  <metadata
     id="metadata5">
    <rdf:RDF>
      <cc:Work
         rdf:about="">
        <dc:format>image/svg+xml</dc:format>
        <dc:type
           rdf:resource="http://purl.org/dc/dcmitype/StillImage" />
        <dc:title></dc:title>
      </cc:Work>
    </rdf:RDF>
  </metadata>
  <g
     inkscape:label="Layer 1"
     inkscape:groupmode="layer"
     id="layer1"
     transform="translate(0,-87)">
    <rect
       style="fill:#ffff4a;fill-opacity:1;fill-rule:evenodd;stroke-width:0.22616205"
       id="rect839"
       width="212.47928"
       height="211.4102"
       x="-1.0690777"
       y="86.65889"
       rx="2.3359437"
       ry="1.9400018" />
    <path
       style="fill:#282e2d;stroke-width:0.48875868;fill-opacity:1"
       d="m 17.55934,288.40379 c -0.475212,-0.47521 -0.39844,-7.85373 0.113979,-10.94804 0.241865,-1.46066 0.703554,-4.30529 1.025977,-6.32144 0.622959,-3.89531 1.526443,-5.8651 2.690117,-5.8651 0.391586,0 1.582784,0.34843 2.647111,0.77429 1.465315,0.58631 2.011131,1.12028 2.248136,2.19942 0.401174,1.82648 1.212867,1.84963 1.212867,0.0345 0,-1.85747 1.328672,-3.00042 3.091141,-2.65906 2.012442,0.3898 2.428135,1.9731 2.089769,7.95967 -0.51685,9.14457 -0.924637,11.23456 -2.476515,12.69247 -1.734833,1.62979 -2.910367,0.954 -4.714177,-2.71007 -0.855364,-1.73748 -1.68239,-3.03187 -1.837838,-2.87639 -0.155541,0.15535 -0.557933,1.64437 -0.894415,3.30873 -0.396517,1.96143 -0.978705,3.32704 -1.654698,3.88144 -1.045855,0.85771 -2.931241,1.13961 -3.54136,0.52949 z m 44.647152,-0.59856 c -2.023858,-0.56345 -2.992529,-5.1386 -2.805272,-13.24961 0.15458,-6.69525 0.55022,-8.35412 2.198344,-9.21738 0.464268,-0.24317 3.373452,-0.52314 6.464851,-0.62216 4.750366,-0.15221 5.620728,-0.0665 5.620728,0.55313 0,0.5707 -0.781325,0.76489 -3.526345,0.87641 l -3.526343,0.14316 -0.503191,1.8118 c -0.276755,0.99647 -0.50442,2.81554 -0.505914,4.04238 l -0.003,2.23063 3.543493,-0.0312 c 2.765131,-0.0244 3.543505,0.12265 3.543505,0.66933 0,0.45536 -1.240088,1.03698 -3.543505,1.66196 l -3.543493,0.96143 v 1.84972 c 0,2.48832 0.769291,4.35715 1.793578,4.35715 0.46214,0 2.446081,-0.3849 4.408771,-0.85533 3.354854,-0.8041 3.581022,-0.94311 3.777248,-2.3216 1.657445,-11.64338 2.849943,-14.4126 6.94291,-16.12276 1.854651,-0.77491 3.658928,-0.28223 6.860483,1.87337 2.972694,2.0015 3.095692,3.25055 0.661805,6.7203 l -1.999215,2.85007 1.921168,1.21277 c 3.126045,1.97339 4.704335,4.86061 4.155942,7.60262 -0.296434,1.4821 -1.677956,2.5544 -2.576004,1.99938 -0.331759,-0.20505 -0.819717,-1.33955 -1.084367,-2.52113 -0.607553,-2.71345 -2.564459,-4.83648 -4.457824,-4.83648 -2.307257,0 -3.297743,0.80565 -3.297743,2.68235 0,3.46308 -1.83995,6.1153 -4.242414,6.1153 -1.449714,0 -1.683315,-0.18103 -1.949099,-1.50991 -0.343174,-1.71582 0.242246,-1.73389 -7.249354,0.22379 -5.220168,1.36411 -5.230508,1.36535 -7.079811,0.85048 z m 22.647962,-15.32905 c 1.743931,-2.12824 2.786169,-4.76316 1.88405,-4.76316 -0.271401,0 -1.00516,0.82477 -1.630583,1.83283 -3.154634,5.08475 -3.288672,6.6344 -0.253467,2.93033 z m 65.065706,14.75149 c -0.30176,-0.95074 -0.37696,-0.96309 -1.21979,-0.20032 -1.59815,1.44628 -2.70622,0.52994 -3.91863,-3.24065 -0.86991,-2.70535 -1.37219,-3.54697 -2.33548,-3.91321 -0.67497,-0.25663 -1.39674,-0.29347 -1.60393,-0.0818 -0.20719,0.21161 -0.4463,1.90085 -0.53137,3.75387 -0.18288,3.98435 -0.68288,4.49492 -3.92567,4.00865 -1.97186,-0.2957 -2.25787,-0.49886 -2.51543,-1.78661 -0.16257,-0.81244 0.26471,-4.19663 0.96904,-7.67653 0.69281,-3.42294 1.3707,-6.77339 1.50646,-7.44543 0.64991,-3.21759 3.36114,-7.33138 4.83179,-7.33138 1.27214,0 3.50466,1.39439 4.52362,2.82541 1.00857,1.41641 2.51434,8.13653 2.52754,11.28039 0.004,0.97835 0.2207,2.10877 0.4813,2.51199 0.35575,0.55048 0.47575,0.30695 0.48167,-0.97752 0.0116,-2.41435 1.36735,-8.63285 2.27866,-10.44792 0.90139,-1.79534 2.25401,-2.9991 4.44822,-3.95874 1.99944,-0.87446 3.92506,-0.30303 6.81278,2.02173 2.96777,2.38921 3.04637,3.1478 0.67621,6.52669 l -2.0097,2.86503 2.135,1.46895 c 2.16586,1.49014 3.41015,2.98831 3.92144,4.72156 0.15536,0.52644 0.20162,-3.03418 0.10294,-7.91247 -0.12214,-6.03792 -0.008,-9.04169 0.3596,-9.4086 0.60624,-0.60626 3.24512,-0.71396 4.04085,-0.16496 0.72691,0.50154 2.06911,10.4048 1.96969,14.5331 -0.0924,3.83197 -1.13335,6.71884 -2.73131,7.57404 -1.47382,0.78877 -2.33251,0.31796 -2.85208,-1.56377 l -0.44497,-1.61144 -0.50156,1.24198 c -1.2239,3.03053 -2.85291,2.77719 -3.60035,-0.55992 -0.84932,-3.79203 -3.26678,-5.43674 -6.65605,-4.52847 -0.89814,0.24069 -1.09971,0.63843 -1.09971,2.16974 0,3.63301 -1.78445,6.31987 -4.19727,6.31987 -1.19151,0 -1.68436,-0.2596 -1.92355,-1.01321 z m -6.82125,-11.56862 c -0.51704,-2.75594 -0.92709,-3.02966 -1.28699,-0.85903 -0.20879,1.25926 -0.12613,2.08282 0.23203,2.31412 1.11385,0.71912 1.39108,0.33674 1.05496,-1.45509 z m 15.37165,-3.52927 c 1.51281,-1.91007 2.41051,-4.41676 1.58175,-4.41676 -0.60842,0 -4.5001,6.25603 -4.5001,7.23411 0,0.4171 1.51497,-1.04544 2.91835,-2.81735 z M 5.0011068,286.91182 C 1.6809772,284.60319 0.48990755,280.69903 0.7096604,272.84497 l 0.1503682,-5.37634 2.3441579,0.0812 c 3.7311669,0.12912 3.7653233,0.20865 3.7653233,8.77643 0,6.312 0.1160147,7.51592 0.7238364,7.51592 0.3980883,0 0.8170141,-0.49486 0.9309352,-1.09972 0.7061399,-3.74946 1.2004166,-7.8261 1.2428119,-10.25043 0.092915,-5.30835 1.2129217,-6.30574 4.5414757,-4.04393 1.768453,1.20169 1.796144,1.2699 1.538042,3.78789 -0.3902,3.80673 -1.877664,11.28399 -2.41899,12.1599 -0.16607,0.26861 -1.19264,1.13367 -2.281406,1.92236 -2.2650759,1.64081 -4.4417038,1.84775 -6.2451829,0.59371 z m 42.1944642,0.34577 c -1.764253,-0.71048 -3.699865,-5.41751 -5.041326,-12.25947 -0.530246,-2.70443 -0.522088,-3.47138 0.05068,-4.76539 0.610681,-1.37961 0.900504,-1.54221 2.749098,-1.54221 h 2.066446 l 0.778847,2.67915 c 0.428367,1.47353 0.945592,2.7822 1.149386,2.90815 0.203797,0.12599 1.099727,-1.57453 1.990953,-3.77885 0.891227,-2.20432 1.836697,-4.28279 2.101046,-4.6188 0.788873,-1.00278 2.492572,-0.69837 4.235613,0.75679 l 1.638339,1.36774 -1.270729,2.01296 c -0.698896,1.10713 -1.413836,2.58315 -1.588749,3.28008 -0.174918,0.69692 -0.513608,1.388 -0.752643,1.53573 -0.239038,0.14779 -0.434615,0.8128 -0.434615,1.47792 0,0.6651 -0.549855,2.29437 -1.221897,3.62059 -0.672044,1.32621 -1.221897,2.66944 -1.221897,2.98496 0,0.31551 -0.478866,1.5325 -1.064156,2.70441 -1.107213,2.21699 -1.924717,2.53819 -4.164409,1.63624 z m 48.239333,-0.0259 c 0,-0.28618 0.66772,-1.08218 1.483829,-1.76887 1.769698,-1.48911 2.67612,-3.16552 3.061036,-5.66134 0.315401,-2.04513 0.370481,-1.973 -3.560202,-4.66087 -3.289973,-2.2497 -4.051084,-3.91686 -2.646849,-5.79768 1.251027,-1.67562 5.827623,-4.06998 8.452272,-4.42202 1.78278,-0.23913 2.29352,-0.0745 3.98617,1.28589 1.73372,1.39324 1.9708,1.46575 2.21607,0.67781 0.53773,-1.72737 1.04528,-2.33027 2.20545,-2.6198 1.50129,-0.37466 3.30375,0.40614 3.30877,1.43331 10e-4,0.43609 0.3432,2.88232 0.75793,5.43609 0.70008,4.31071 0.78021,10.51039 0.15795,12.21896 -0.14686,0.40322 -0.38628,1.10522 -0.53203,1.55999 -0.14575,0.45477 -0.84092,1.20422 -1.54483,1.66542 -1.22123,0.80019 -1.32328,0.79511 -2.22931,-0.1108 -0.83817,-0.83816 -0.98677,-1.93608 -1.26717,-9.36335 -0.17476,-4.62765 -0.459,-8.4139 -0.63175,-8.4139 -0.17273,0 -0.54454,0.2305 -0.82624,0.51217 -0.35702,0.35703 -0.8939,0.33824 -1.77253,-0.0621 -1.13558,-0.5174 -1.47746,-0.39641 -3.45234,1.22188 -2.04133,1.67271 -2.767368,2.65347 -2.767368,3.73827 0,0.24344 0.874198,0.99451 1.942668,1.66901 1.06848,0.6745 2.29233,1.76001 2.71973,2.41227 0.72658,1.10891 0.69889,1.35678 -0.42664,3.8174 -1.63951,3.58438 -4.163598,5.75271 -6.696558,5.75271 -1.065905,0 -1.938019,-0.23414 -1.938019,-0.52031 z m 84.948066,-0.47702 c -2.61904,-1.38321 -4.06822,-3.63794 -4.97352,-7.7381 -0.8775,-3.97418 -1.04527,-8.15916 -0.34448,-8.59226 0.24815,-0.15332 0.58947,-0.90851 0.75848,-1.67812 0.16903,-0.7696 0.84578,-1.90513 1.50389,-2.52339 l 1.19654,-1.12409 v 1.23134 c 0,1.36319 1.80795,3.34643 2.35144,2.57942 0.18521,-0.26136 0.94972,-1.41585 1.69894,-2.56553 1.45619,-2.23455 2.89618,-3.03966 5.39004,-3.01361 2.33141,0.0244 5.71109,3.37996 5.71109,5.67038 0,1.46547 0.35492,1.45796 1.52716,-0.0323 1.2406,-1.57719 6.53784,-4.18809 8.49713,-4.18809 1.7493,0 5.616,2.50614 5.616,3.63991 0,1.10379 -0.96467,1.41973 -2.24414,0.73498 -1.07366,-0.5746 -1.37095,-0.46092 -3.49691,1.3372 -3.12174,2.64037 -3.1907,3.58758 -0.40093,5.507 1.22302,0.84145 2.35316,2.04591 2.51145,2.67659 0.42025,1.67447 -1.85016,6.28922 -3.84153,7.80811 -1.71935,1.31144 -5.23567,1.79625 -5.23567,0.72192 0,-0.30029 0.87977,-1.39974 1.95504,-2.44325 1.60523,-1.55784 1.95504,-2.22972 1.95504,-3.75513 0,-1.02181 0.24454,-2.10236 0.54341,-2.40124 0.3987,-0.39872 -0.0242,-0.90511 -1.58847,-1.90173 -1.17253,-0.74709 -2.81618,-1.98974 -3.65254,-2.76144 l -1.52066,-1.40311 -0.57699,4.49933 c -0.8073,6.29486 -1.40095,7.21263 -6.15686,9.51824 -2.93282,1.42179 -4.76846,1.47212 -7.18295,0.19695 z m 6.02373,-2.70078 c 2.89649,-1.49782 3.69987,-4.82531 3.04253,-12.60156 -0.29028,-3.43413 -0.4041,-3.73943 -1.39399,-3.73943 -2.00035,0 -4.31009,2.10183 -6.18851,5.63144 -2.31235,4.345 -2.50659,7.37991 -0.6298,9.84051 1.40668,1.84424 2.82341,2.0824 5.16977,0.86904 z m -150.638948,2.42973 c -0.421673,-0.5081 -0.770579,-3.10424 -1.001711,-7.45358 -0.195063,-3.67067 -0.481857,-8.10356 -0.637317,-9.85087 -0.311923,-3.50588 -0.0889,-4.13844 1.691413,-4.79706 1.17069,-0.4331 3.407514,0.14409 3.407514,0.87936 0,0.17827 0.321357,2.50739 0.714128,5.1757 0.611566,4.15473 0.820396,7.51172 0.724713,11.64983 -0.02713,1.17382 -0.782644,2.65888 -2.073877,4.07654 -1.183259,1.29911 -1.941071,1.38498 -2.824863,0.32008 z m 85.171188,-0.0463 c -0.25637,-0.48665 -0.6234,-3.33229 -0.81564,-6.32364 -0.50966,-7.93093 -0.68906,-8.54879 -2.6767,-9.21802 -3.10371,-1.04501 -2.45198,-1.61435 4.38126,-3.82727 1.20969,-0.39175 4.24479,-0.87111 6.74469,-1.06524 3.97038,-0.30833 4.66583,-0.24385 5.49853,0.50972 1.81488,1.64244 1.22261,2.43811 -2.8434,3.81982 -2.08818,0.70961 -4.28759,1.29019 -4.88758,1.29019 -1.05367,0 -1.09308,0.17106 -1.15394,5.00978 -0.0864,6.87337 -0.15831,7.71242 -0.69328,8.09667 -0.25607,0.18399 -0.7091,0.7743 -1.00673,1.31194 -0.71913,1.299 -1.96915,1.49335 -2.54721,0.39605 z m -74.661865,-31.8061 c -0.981839,-0.66984 -2.161838,-5.41563 -2.161838,-8.69463 0,-3.14667 -0.03964,-3.25367 -1.099707,-2.96957 -0.604838,0.162 -1.498799,0.2977 -1.98657,0.30138 -0.808616,0.005 -0.873304,0.44869 -0.733138,5.01645 l 0.15373,5.00978 -1.800881,0.14982 c -2.176079,0.18102 -2.537991,-0.34593 -3.30089,-4.80583 -0.864336,-5.05287 -0.973206,-5.36416 -1.872357,-5.3534 -0.561277,0.008 -1.421757,1.19476 -2.556669,3.52995 -2.804,5.76953 -5.519645,8.12773 -6.775479,5.88365 -0.431673,-0.77132 -0.54382,-0.75148 -1.36839,0.242 -2.038914,2.45667 -4.228823,-0.28417 -6.941771,-8.6882 -0.824403,-2.55377 -1.561374,-5.52297 -1.637722,-6.59826 -0.122663,-1.72722 -0.0055,-1.97392 1.007301,-2.11729 1.858472,-0.26313 3.965107,0.86913 4.281878,2.30136 0.723652,3.27187 0.793018,3.34902 1.491047,1.65815 0.613149,-1.48525 0.731892,-1.54532 1.998386,-1.01096 2.203819,0.92985 3.210954,2.17759 3.552054,4.40065 0.260356,1.69678 0.397517,1.91197 0.715063,1.12196 2.512186,-6.24985 3.455017,-8.17139 5.021417,-10.23396 2.272641,-2.99254 4.478411,-3.79336 6.435161,-2.33629 1.103554,0.82174 1.281348,1.35089 1.407614,4.18942 0.160732,3.61307 0.164574,3.61586 3.744865,2.71433 2.019086,-0.50842 2.138467,-0.63877 2.442636,-2.66712 0.448191,-2.98876 1.589297,-4.23103 3.958939,-4.30992 l 1.928008,-0.0643 -0.13681,2.56598 c -0.0812,1.5231 0.06778,2.56597 0.366568,2.56597 0.863032,0 0.55067,3.06231 -0.420547,4.12296 -0.746926,0.81571 -0.983221,2.08587 -1.233382,6.62975 -0.294707,5.35309 -0.372899,5.67297 -1.642048,6.718 -1.4114,1.16217 -1.984548,1.30928 -2.836454,0.72807 z m 11.223804,-0.45086 c -1.382832,-0.27187 -2.000618,-1.79021 -2.692466,-6.61734 -0.718318,-5.01177 -0.02767,-14.18542 1.1572,-15.37028 0.801863,-0.80187 10.593675,-1.79967 12.575342,-1.28145 2.008724,0.5253 0.614615,1.37343 -3.049912,1.85547 -2.043545,0.26881 -3.809699,0.59872 -3.924786,0.73313 -0.115087,0.13448 -0.334303,1.8085 -0.487128,3.7202 l -0.277868,3.47579 3.279258,-0.23463 c 2.57245,-0.184 3.414669,-0.0715 3.907513,0.52238 0.786642,0.94784 -0.148742,1.51627 -3.28395,1.99562 -3.641218,0.55672 -4.120642,1.01591 -3.736336,3.57865 0.182973,1.22017 0.448489,2.52028 0.590035,2.88915 0.33884,0.883 2.08159,0.84766 5.372128,-0.109 1.474898,-0.42877 3.056935,-0.68142 3.515647,-0.56148 0.754063,0.19721 0.84131,-0.43397 0.910223,-6.58524 0.09134,-8.14832 0.545791,-9.91256 2.724432,-10.57536 1.70961,-0.52013 10.478505,-1.05626 11.457331,-0.70051 0.336024,0.12213 0.610943,0.50521 0.610943,0.85133 0,0.43234 -1.223443,0.73602 -3.909161,0.9703 -4.396346,0.3835 -4.195211,0.15333 -4.528271,5.18208 l -0.179414,2.70867 3.697474,-0.0205 c 2.943257,-0.0166 3.697475,0.12651 3.697475,0.70085 0,0.39675 -0.549862,0.87486 -1.221897,1.06244 -0.672048,0.1876 -2.321609,0.64768 -3.665692,1.02244 l -2.443794,0.68135 0.16389,2.12193 c 0.09018,1.16706 0.353249,2.62001 0.584698,3.22876 0.420178,1.10515 0.425435,1.10565 3.501802,0.33586 4.152438,-1.0391 5.7777,-1.04493 6.431028,-0.0231 0.82518,1.29065 -0.563621,2.01174 -6.805393,3.53351 -6.68264,1.62927 -9.007997,1.22676 -9.007997,-1.55917 0,-1.15337 -0.05901,-1.17964 -1.106836,-0.49302 -0.608765,0.39886 -2.203339,0.98595 -3.543497,1.3046 -9.064168,2.15525 -8.354764,2.0413 -10.312028,1.65648 z m 106.971191,0.0129 c -0.33602,-0.1356 -0.61095,-0.71702 -0.61095,-1.29206 v -1.04554 l -0.76085,1.08628 c -0.83431,1.19113 -2.37664,1.43566 -2.99817,0.47532 -0.21748,-0.33604 -0.84775,-2.02809 -1.40061,-3.76012 -0.82744,-2.59228 -1.23174,-3.20977 -2.28645,-3.49183 -1.26104,-0.33726 -1.29034,-0.28753 -1.85532,3.14916 -0.84846,5.16096 -0.64295,4.88773 -3.42828,4.55784 -3.38107,-0.40043 -3.56055,-0.57965 -3.21144,-3.20675 1.51054,-11.36619 3.13465,-17.15531 5.60411,-19.97559 1.25069,-1.42839 2.32705,-1.36745 4.68863,0.26544 2.43194,1.68153 3.45377,4.80897 3.94999,12.0893 0.36478,5.35168 1.20963,7.06157 1.20963,2.44813 0,-1.46861 0.48346,-4.57955 1.07436,-6.91314 0.87021,-3.43659 1.39334,-4.55268 2.75284,-5.87302 3.01375,-2.92692 6.78733,-2.6485 10.3763,0.76562 1.83276,1.74344 2.4658,3.54651 1.46278,4.1664 -0.2545,0.15721 -1.15847,1.3169 -2.00884,2.5769 -1.08588,1.60896 -1.35891,2.35328 -0.91721,2.50053 0.34591,0.1153 1.54941,1.05812 2.67447,2.09516 1.12504,1.03704 2.15731,1.88551 2.2939,1.88551 0.13651,0 0.38182,-0.93474 0.54497,-2.07721 1.03493,-7.2478 2.24631,-11.1759 4.22041,-13.68525 1.30695,-1.66131 2.41154,-1.69086 4.88299,-0.13079 1.67299,1.05613 2.04526,1.64201 2.87268,4.52103 0.52283,1.81922 1.08436,5.05988 1.24785,7.20148 0.16348,2.14163 0.55283,5.13112 0.86517,6.64336 0.61646,2.98461 0.38721,4.2196 -0.87308,4.70321 -1.4033,0.5385 -2.34673,-0.57148 -3.42687,-4.03185 -0.86764,-2.77962 -1.26214,-3.41048 -2.30767,-3.6901 -1.4885,-0.39807 -1.67566,-0.008 -2.18173,4.56238 l -0.34008,3.07069 -1.95364,-0.0606 c -5.50162,-0.1705 -5.62344,-0.22726 -6.63337,-3.09505 -1.16406,-3.30545 -2.62731,-4.90894 -4.47962,-4.90894 -2.29676,0 -3.30399,0.80652 -3.30399,2.64567 0,1.80076 -1.25974,5.21451 -2.13215,5.77793 -0.62033,0.40062 -2.6718,0.42923 -3.61076,0.0505 z m -7.34275,-12.26183 c -0.28218,-2.84711 -0.39542,-2.94479 -1.06557,-0.91945 -0.51981,1.571 -0.51265,1.96251 0.0423,2.31412 1.0924,0.69205 1.21365,0.52677 1.02321,-1.39467 z m 32.62854,0.48874 c -0.0129,-2.17418 -0.77994,-2.90555 -1.14326,-1.08893 -0.32403,1.62014 -0.0933,2.43301 0.69082,2.43301 0.25295,0 0.45656,-0.60483 0.45244,-1.34408 z m -17.37032,-3.83267 c 2.04893,-2.51527 2.8579,-4.59841 1.7858,-4.59841 -0.53734,0 -3.28069,4.34225 -4.09144,6.47606 -0.53321,1.40332 -0.0396,1.00125 2.30564,-1.87765 z m -80.671754,15.09226 c -2.417267,-0.3054 -2.803485,-1.603 -2.466829,-8.28789 0.618118,-12.27433 0.979702,-14.55487 2.390727,-15.07866 0.340057,-0.12613 1.27812,-0.0497 2.084567,0.16996 1.653091,0.45027 1.51502,-0.7108 1.652137,13.89209 l 0.05849,6.23167 h 1.20471 c 0.736079,0 1.42557,0.41275 1.772519,1.06102 1.06463,1.98927 -1.285785,2.69542 -6.696348,2.01186 z m 9.095454,0.001 c 0,-0.19026 0.79753,-1.16269 1.77226,-2.16092 1.18549,-1.21403 1.9991,-2.67729 2.45736,-4.41942 0.65309,-2.48278 0.63771,-2.63875 -0.32905,-3.33763 -3.63657,-2.62892 -5.948797,-4.56174 -6.180968,-5.16676 -0.855649,-2.22983 2.054958,-5.0902 6.943948,-6.82414 2.93622,-1.04135 4.22224,-0.79542 6.738,1.28849 1.64063,1.35903 1.78292,1.63749 1.15672,2.26368 -0.56938,0.56939 -0.93021,0.59831 -1.78132,0.14279 -0.84798,-0.45381 -1.29598,-0.42137 -2.18007,0.15794 -1.77322,1.16188 -4.19805,3.75327 -4.19805,4.48645 0,0.36964 0.98645,1.35075 2.1921,2.18026 3.20936,2.20811 3.44725,2.91402 2.02779,6.01729 -1.6247,3.55194 -4.1554,5.71796 -6.68069,5.71796 -1.06591,0 -1.93803,-0.15574 -1.93803,-0.34596 z m 28.8136,-0.0358 c -0.0129,-0.19317 -0.004,-3.59536 0.022,-7.56041 0.0264,-4.20799 -0.14612,-7.20921 -0.4145,-7.20921 -0.60143,0 -2.37654,-3.59782 -2.13405,-4.32532 0.10307,-0.30924 0.40111,-0.56226 0.66227,-0.56226 0.26117,0 1.50749,-0.47999 2.76963,-1.06665 4.99351,-2.32105 12.66062,-1.6162 15.85785,1.45783 1.00806,0.96923 1.83284,2.05061 1.83284,2.40307 0,0.64407 -2.86602,3.51851 -3.5349,3.5453 -0.19686,0.008 -1.73646,0.85079 -3.42131,1.87317 -3.36426,2.04146 -5.35887,2.9071 -7.20796,3.12818 -1.30599,0.15609 -1.51969,0.62347 -2.44965,5.3566 -0.30522,1.5535 -0.85426,2.887 -1.2514,3.03941 -0.38919,0.14925 -0.71805,0.11337 -0.73079,-0.0796 z m 7.69916,-12.91171 c 1.82659,-0.8599 4.20084,-2.11191 5.27613,-2.78228 l 1.95502,-1.21884 -1.46627,-0.29378 c -0.80644,-0.16165 -2.89073,-0.17421 -4.63172,-0.0281 l -3.16543,0.2657 -0.36148,2.12933 c -0.19881,1.17114 -0.61582,2.43581 -0.92667,2.81038 -0.81149,0.97776 -0.39711,0.86764 3.32042,-0.88241 z m -95.884751,-16.8632 c -1.831227,-0.49217 -2.042538,-1.46673 -1.925093,-8.87851 0.141797,-8.94892 0.510243,-13.88948 1.408115,-18.88175 0.386779,-2.15055 0.814269,-4.56989 0.949984,-5.37636 0.417684,-2.48198 1.682367,-9.64293 2.157972,-12.21896 0.619825,-3.35717 1.860408,-5.55702 3.343789,-5.92932 1.862695,-0.4675 7.302756,0.59468 8.911079,1.7399 0.782049,0.55685 1.638403,1.01249 1.903012,1.01249 0.264609,0 0.627191,0.77872 0.805743,1.73048 0.370507,1.97499 2.148656,6.33186 2.457959,6.02256 0.113,-0.11299 0.448979,-1.7299 0.746627,-3.59312 1.050367,-6.57503 2.315748,-7.6768 7.496664,-6.52742 2.287493,0.50747 2.989044,0.89123 3.417828,1.86958 0.621713,1.41856 0.779753,19.40369 0.204085,23.22519 -0.202475,1.3441 -0.384014,3.76346 -0.403416,5.37636 -0.08464,7.02854 -1.700411,12.70998 -4.475715,15.73712 -2.36968,2.58469 -6.597696,1.59826 -8.178635,-1.90816 -0.52045,-1.15432 -1.268725,-2.64862 -1.662826,-3.32066 -1.469062,-2.5051 -4.707779,-9.71165 -4.756039,-10.58275 -0.08261,-1.49116 -0.979594,2.2632 -1.477454,6.18392 -0.941466,7.41416 -2.600988,12.5086 -4.2387,13.01206 -0.457636,0.14076 -1.18988,0.44462 -1.627216,0.67543 -1.119917,0.59104 -3.911986,0.93988 -5.057763,0.63192 z m 42.754211,-1.3673 c -0.672048,-0.38418 -1.622506,-0.70629 -2.112138,-0.71581 -1.376394,-0.0268 -2.172316,-1.12539 -2.706331,-3.73548 -0.269095,-1.31524 -0.846089,-3.82094 -1.282217,-5.56827 -0.436128,-1.74729 -1.017863,-4.82648 -1.292756,-6.8426 -0.769897,-5.64669 -0.021,-21.91286 1.345848,-29.2319 0.464974,-2.48975 3.080877,-4.98123 5.230002,-4.98123 0.965351,0 3.358732,-0.2272 5.31864,-0.50487 1.959908,-0.27769 6.64265,-0.67563 10.406088,-0.88429 6.602884,-0.36613 10.019554,-0.0512 10.019554,0.92338 0,0.2562 0.3299,0.46578 0.73313,0.46578 0.40322,0 0.73314,0.28834 0.73314,0.64076 0,0.95581 -3.89781,1.7242 -10.597877,2.08915 -8.39453,0.45726 -8.0965,0.20941 -8.781508,7.30337 -0.31076,3.21825 -0.731002,7.04044 -0.933864,8.49374 l -0.368863,2.64232 2.887497,-0.37597 c 7.173909,-0.93416 12.693045,-1.05152 13.611285,-0.28948 0.41319,0.34293 0.64232,0.79975 0.50921,1.01513 -0.13319,0.2154 0.0341,0.49403 0.37194,0.61916 1.33055,0.49305 -0.99777,1.87127 -3.83992,2.27302 -1.5954,0.22549 -3.775259,0.79021 -4.844127,1.25491 -1.800966,0.78299 -3.853376,1.36306 -7.19755,2.03431 -1.235244,0.24794 -1.343658,0.45329 -1.338801,2.53591 0.0026,1.24638 0.332829,3.3458 0.733141,4.6654 0.400325,1.31963 0.72867,2.96917 0.729675,3.66571 9.79e-4,0.69651 0.428888,1.9668 0.950857,2.82283 0.866522,1.42114 1.08943,1.52211 2.564151,1.16155 0.888333,-0.2172 3.374668,-0.7953 5.525204,-1.28469 2.15052,-0.48937 4.17178,-1.08301 4.49163,-1.31919 0.31988,-0.23618 2.25346,-0.55586 4.29686,-0.7104 3.58788,-0.27135 3.76488,-0.23348 5.16135,1.10443 0.79533,0.76198 1.44605,1.65125 1.44605,1.97616 0,0.81886 -4.49075,3.62519 -5.80112,3.62519 -0.58977,0 -2.44003,0.47059 -4.11166,1.04574 -1.67163,0.57517 -5.23874,1.55536 -7.92691,2.17822 -2.688166,0.62284 -6.207231,1.4685 -7.820125,1.87918 -3.600785,0.91686 -4.54824,0.92133 -6.109485,0.0289 z m -73.597838,-0.77693 c -0.9155848,-1.0117 -0.9059597,-1.03737 1.023965,-2.73104 4.414677,-3.87425 6.591435,-6.19714 6.591435,-7.03392 0,-0.48744 0.204549,-1.01266 0.45456,-1.16718 0.249991,-0.15443 0.588579,-1.54211 0.752377,-3.08358 0.371968,-3.50037 1.250256,-6.51777 1.798509,-6.17893 0.663136,0.40983 0.482416,-0.46568 -0.337867,-1.63678 -0.414548,-0.59185 -2.833335,-2.31711 -5.375096,-3.83391 -5.263022,-3.14072 -8.8667828,-6.12434 -9.6283598,-7.97146 -0.7640338,-1.85308 -0.8713973,-4.51148 -0.2386489,-5.90886 0.7514352,-1.65949 2.8373062,-3.91007 3.6239322,-3.91007 0.3529411,0 0.6416883,-0.217 0.6416883,-0.48219 0,-0.26522 0.7148232,-0.81966 1.5884742,-1.2321 0.873652,-0.41242 2.455974,-1.27991 3.516274,-1.92771 3.341447,-2.0415 8.001241,-3.35725 12.001814,-3.38884 l 3.6657,-0.029 3.674265,2.73197 c 4.46278,3.31827 5.052355,3.98919 4.641905,5.28239 -0.589243,1.85654 -2.038105,2.17087 -4.709406,1.0217 -2.806376,-1.20726 -2.76182,-1.22254 -8.125462,2.78592 -4.674018,3.49308 -6.553382,6.25776 -5.900665,8.68027 0.303988,1.12824 1.352003,2.08214 4.562627,4.15284 4.36977,2.81829 6.589864,5.3789 6.589864,7.60058 0,0.69724 -1.228384,3.77476 -2.729739,6.83895 -2.232342,4.55605 -3.253074,6.05577 -5.601572,8.23005 -2.500734,2.31526 -3.313036,2.75914 -6.28658,3.43547 -4.428144,1.00716 -5.084593,0.98123 -6.193994,-0.24463 z M 163.58704,205.66128 c 0.3031,-15.75874 0.27045,-16.77918 -0.55731,-17.40688 -1.42254,-1.07879 -1.91023,-0.81871 -2.56543,1.3681 -0.34043,1.13631 -1.22276,2.95082 -1.9607,4.03227 -1.39221,2.04022 -2.26342,3.84098 -3.67063,7.58699 -0.45442,1.20967 -1.41771,3.18913 -2.14062,4.39883 -0.72291,1.20967 -1.67291,2.9692 -2.11111,3.91005 -2.57109,5.52056 -2.75313,5.79482 -6.57068,9.89879 -2.53506,2.72525 -5.21849,2.09779 -6.8508,-1.6019 l -0.88262,-2.00053 -1.23735,2.59473 c -1.10645,2.32029 -1.41829,2.61215 -2.94799,2.75933 -0.94973,0.0915 -2.36288,-0.18666 -3.17694,-0.62502 -1.38839,-0.74764 -1.83088,-1.48762 -6.66223,-11.14094 -0.23362,-0.46679 -0.42477,-1.09337 -0.42477,-1.39242 0,-0.29905 -0.30818,-1.23678 -0.68488,-2.08386 -0.62547,-1.40651 -3.12397,-8.73607 -4.19036,-12.29284 -0.43503,-1.4509 -1.18246,-5.08803 -1.99914,-9.72809 -0.232,-1.3182 -0.30679,-2.58287 -0.16626,-2.81038 0.43829,-0.70915 5.33741,-0.45335 8.08414,0.42212 3.2478,1.03514 3.90281,1.85896 4.58157,5.76249 0.0468,0.26883 0.23364,1.03862 0.41534,1.71066 0.18178,0.67204 0.43155,1.88173 0.55521,2.68817 0.40042,2.61154 1.11012,5.3962 1.18335,4.64321 0.37457,-3.85174 1.08996,-8.01771 1.51234,-8.80692 0.67645,-1.26397 1.72754,-1.22152 4.66897,0.1885 1.3272,0.63621 2.90795,1.31084 3.51279,1.49921 0.60483,0.18836 1.0997,0.58524 1.0997,0.88198 0,0.29676 0.33306,0.90756 0.74013,1.35737 0.65471,0.72345 1.41742,7.33302 1.33862,11.60029 -0.0357,1.9326 0.66748,1.18449 1.60794,-1.71066 0.5021,-1.54568 1.08769,-3.01929 1.30128,-3.27468 0.21361,-0.25536 0.38838,-0.77197 0.38838,-1.14802 0,-0.37604 0.31446,-1.37678 0.69881,-2.22385 0.38434,-0.84708 1.40881,-3.27881 2.27658,-5.40384 3.11616,-7.63097 6.18086,-12.40432 10.62065,-16.54198 1.37012,-1.27689 2.95092,-2.3216 3.51291,-2.3216 0.98186,0 3.41892,2.14123 3.41892,3.00391 0,0.66499 1.27516,0.49265 4.53642,-0.61308 4.39215,-1.48912 11.89755,-1.79643 17.35928,-0.71073 2.33909,0.46496 4.69277,1.0331 5.23039,1.26258 0.53764,0.22945 1.52739,0.57312 2.19942,0.76367 2.94408,0.83488 8.41297,5.76669 9.9306,8.95537 0.49766,1.04562 0.40179,1.28927 -0.86544,2.1994 -0.78379,0.56294 -2.40969,1.93619 -3.61306,3.05167 -1.20339,1.11548 -3.63722,2.7566 -5.4085,3.64693 -1.77129,0.89031 -4.57041,2.5554 -6.22028,3.70022 -1.64987,1.1448 -4.06924,2.5092 -5.37635,3.03197 -1.30713,0.52281 -3.41981,1.51207 -4.69484,2.19843 -1.27502,0.68634 -3.14454,1.2771 -4.15444,1.31276 -3.54036,0.1251 -4.56232,0.4942 -5.10658,1.84434 -0.6312,1.5658 -1.7879,7.50771 -2.26133,11.61622 -0.3643,3.16152 -0.83851,4.01277 -3.15401,5.66154 l -1.44116,1.0262 z m 20.78869,-14.8421 c 5.24268,-2.58358 8.57563,-4.56213 11.24006,-6.67238 1.62936,-1.29047 1.923,-1.72583 1.30921,-1.94115 -1.06034,-0.37193 -10.95766,-0.23502 -15.20684,0.21039 -4.68978,0.49158 -5.63808,0.91533 -5.63808,2.51944 0,1.76029 -1.3289,6.34947 -2.48539,8.58296 -0.51475,0.99412 -0.93591,2.02453 -0.93591,2.28981 0,0.49346 4.35193,-1.35959 11.71695,-4.98907 z M 59.91147,162.6273 c -5.107141,-2.51336 -7.646781,-6.46242 -7.699177,-11.97201 -0.03846,-4.04225 1.207928,-7.15052 3.925485,-9.78962 2.824729,-2.74319 4.732569,-3.40687 9.793563,-3.40687 h 4.465168 l 2.811601,2.19942 c 3.663244,2.86561 5.279333,5.8988 5.532774,10.38422 0.159432,2.82136 -0.0026,3.6867 -1.09515,5.87104 -2.734649,5.46437 -5.694177,7.35502 -12.51387,7.99433 -1.73573,0.16275 -2.836303,-0.10731 -5.220394,-1.28051 z m 10.654906,-2.27567 c 8.111393,-4.41477 7.867575,-16.0621 -0.414432,-19.79775 -5.183663,-2.33812 -11.166941,-0.57988 -14.179195,4.16665 -1.059448,1.66942 -1.290562,2.62505 -1.317058,5.44601 -0.04829,5.1396 1.72051,8.24458 5.848092,10.26591 3.395069,1.66261 6.911242,1.63436 10.062593,-0.0808 z m -9.833342,-1.3582 c -2.719043,-1.80428 -3.995745,-3.47319 -4.682586,-6.12103 -2.112265,-8.14299 6.574605,-15.0126 13.90286,-10.99442 5.796561,3.17831 7.14907,10.32948 2.874408,15.19805 -2.129092,2.42491 -3.763643,3.11438 -7.305011,3.0813 -2.372011,-0.0222 -3.471816,-0.28941 -4.789671,-1.1639 z m 8.692134,-1.62018 c 1.987027,-0.9107 4.01559,-4.23424 4.01559,-6.57903 0,-2.56049 -1.223752,-5.03617 -3.255446,-6.58581 -2.437015,-1.85881 -6.903264,-1.97122 -9.337464,-0.23502 -5.33093,3.80231 -3.697317,12.74905 2.589546,14.18206 2.164694,0.49344 3.619001,0.30345 5.987774,-0.7822 z m -3.981296,-0.36411 c 0.154728,-0.40322 0.816853,-0.73312 1.471375,-0.73312 2.112405,0 4.570473,-3.40414 4.570473,-6.32959 0,-0.81979 0.219945,-1.49054 0.488769,-1.49054 0.268812,0 0.488757,1.09206 0.488757,2.42679 0,2.01746 -0.255851,2.71817 -1.516914,4.15443 -0.8343,0.95021 -1.933999,1.72766 -2.443788,1.72766 -0.50979,0 -0.926886,0.21996 -0.926886,0.48877 0,0.26882 -0.542954,0.48876 -1.206561,0.48876 -0.871691,0 -1.128475,-0.20348 -0.925225,-0.73316 z m -5.718629,-2.32159 c -1.574799,-2.09924 -1.665059,-6.01463 -0.184358,-7.99787 1.098251,-1.47098 2.169676,-2.05729 2.169676,-1.18729 0,0.3021 -0.470177,1.18523 -1.044836,1.96249 -0.833711,1.12765 -0.99353,1.86835 -0.790939,3.66574 0.139636,1.23888 0.609815,2.64582 1.044836,3.12649 0.840826,0.92911 1.053556,2.01891 0.394095,2.01891 -0.218265,0 -0.933074,-0.7148 -1.588466,-1.58847 z m 2.425783,-0.90702 c -2.298318,-2.46035 -1.71892,-5.9485 1.254008,-7.54955 4.69865,-2.53037 9.007632,3.81695 5.185736,7.63883 -2.017567,2.01758 -4.503848,1.98312 -6.439744,-0.0893 z m 5.405589,-1.50675 c 1.292782,-1.38764 1.256786,-2.13584 -0.171447,-3.56408 -2.599327,-2.59932 -6.355492,1.01362 -3.888198,3.73997 1.089213,1.20355 2.845398,1.12747 4.059654,-0.17587 z m 1.956623,-5.95313 c -0.900333,-0.84153 -3.659669,-1.77484 -5.247294,-1.77484 -1.019078,0 -1.113308,-0.11504 -0.600357,-0.73315 0.334647,-0.40322 1.186358,-0.72951 1.892689,-0.72509 1.685221,0.0116 5.141804,1.9882 5.348195,3.05992 0.195042,1.01277 -0.413981,1.08847 -1.393233,0.1731 z m -35.421587,7.99382 c -0.16836,-0.27242 -0.324782,-1.15218 -0.347596,-1.95505 -0.02291,-0.80287 -0.295916,-1.45975 -0.606849,-1.45975 -1.379215,0 -2.295907,-1.3851 -2.758429,-4.16794 -0.26682,-1.60547 -0.609601,-3.64368 -0.761743,-4.52932 -0.189235,-1.1017 -0.03048,-1.88213 0.502385,-2.47105 0.659054,-0.72825 0.700876,-1.30811 0.27168,-3.76609 -0.279013,-1.59791 -0.632045,-3.72057 -0.784483,-4.71702 -0.4098,-2.67856 0.943404,-5.66146 4.60604,-10.15316 0.333154,-0.40856 2.64254,-3.26481 5.131969,-6.34723 2.489428,-3.0824 5.405999,-6.19259 6.481268,-6.91152 1.869234,-1.24977 6.931561,-3.17983 11.363641,-4.33248 1.832482,-0.47658 2.077225,-0.70461 2.077225,-1.93537 0,-0.82132 0.317986,-1.51717 0.773113,-1.691819 1.391972,-0.534149 4.134093,-0.311628 5.618384,0.455929 1.296271,0.67033 1.787835,0.67403 4.496742,0.0338 1.672763,-0.395324 5.020853,-1.068926 7.440207,-1.496897 2.419368,-0.427973 5.608516,-0.996255 7.087011,-1.262855 11.351147,-2.04682 15.616554,-2.530939 20.039104,-2.274428 2.39929,0.139155 4.87714,0.586428 5.8651,1.058674 2.79897,1.337944 5.95339,2.961928 8.55329,4.403486 1.34407,0.74525 4.75316,2.54718 7.57575,4.00429 l 5.13196,2.64928 4.88761,-0.19865 c 2.68815,-0.10925 10.49607,-0.46935 17.35091,-0.8002 15.09611,-0.7286 18.66554,-0.56898 20.23437,0.90486 0.61976,0.58223 1.51438,2.42538 1.98803,4.09588 0.47367,1.67049 0.94444,3.32613 1.04618,3.67919 0.10178,0.35307 0.41895,0.49732 0.70494,0.32056 0.28599,-0.17674 1.05733,-0.1865 1.71411,-0.0216 0.95869,0.24062 1.19411,0.61165 1.19411,1.88208 0,0.87032 0.22863,2.35073 0.50805,3.28981 0.73788,2.47971 0.72635,8.3787 -0.0191,9.77159 -0.90608,1.69302 -2.39336,2.77995 -4.69378,3.4303 -3.39119,0.95873 -4.19808,0.59039 -4.83707,-2.20804 -0.73919,-3.23728 -1.72981,-5.00951 -3.99213,-7.14193 -5.13185,-4.8372 -10.75973,-5.54646 -17.20562,-2.16834 -1.83826,0.96338 -4.19334,3.58048 -5.51929,6.13333 -0.92462,1.78019 -1.14901,2.99656 -1.17723,6.38144 -0.0192,2.30012 -0.17883,4.41486 -0.35466,4.69945 -0.17587,0.28459 -1.14992,0.64687 -2.16453,0.80509 -5.6015,0.87345 -19.20375,3.19537 -30.68153,5.23734 -7.11431,1.26569 -11.182292,1.96889 -15.151515,2.61915 -7.314698,1.19835 -13.157691,2.25767 -13.869394,2.51449 -1.044377,0.37689 -1.960114,-0.67612 -2.290211,-2.63352 -0.776159,-4.60241 -3.603117,-8.28188 -8.075255,-10.51043 -6.070003,-3.02482 -14.178747,-0.6729 -17.876744,5.18511 -1.496935,2.37131 -2.705914,6.26605 -2.593588,8.35531 0.152456,2.83581 0.116737,2.88656 -1.849082,2.62675 -1.008064,-0.13319 -3.552757,0.0912 -5.65487,0.4989 -2.625381,0.50907 -3.979849,0.58329 -4.326091,0.23705 -0.325274,-0.32528 -1.048813,-0.34784 -2.039854,-0.0635 -1.978471,0.56742 -2.635368,0.55548 -3.012547,-0.0549 z m 3.425343,-1.94853 c 0.616148,-0.26477 0.706491,-0.42005 0.24438,-0.42005 -0.403226,0 -1.173021,0.18904 -1.710656,0.42005 -0.616148,0.26478 -0.706491,0.42006 -0.24438,0.42006 0.403227,0 1.173021,-0.18901 1.710656,-0.42006 z m 4.643208,0.30137 c 0,-0.10307 -0.549853,-0.29252 -1.221897,-0.42098 -0.672044,-0.12832 -1.221897,-0.0442 -1.221897,0.18739 0,0.23154 0.549853,0.421 1.221897,0.421 0.672044,0 1.221897,-0.0844 1.221897,-0.18741 z m 6.725238,-1.87541 c -0.268368,-0.80511 -3.48985,-1.42937 -6.480857,-1.25587 l -2.443794,0.14168 3.91007,0.80755 c 4.917402,1.01559 5.257855,1.03641 5.014581,0.30658 z m -10.146549,-1.54587 c 0,-0.10307 -0.439884,-0.3024 -0.977517,-0.443 -0.537635,-0.14058 -0.977517,-0.0563 -0.977517,0.18736 0,0.24367 0.439882,0.443 0.977517,0.443 0.537633,0 0.977517,-0.0843 0.977517,-0.18736 z m 10.858078,-3.40697 c 0.214078,-1.03606 0.827792,-2.49962 1.363819,-3.25239 0.536026,-0.75278 0.97459,-1.48222 0.97459,-1.62098 0,-0.57192 -3.139776,-0.85536 -10.283128,-0.92829 -9.277693,-0.0947 -9.988211,0.15462 -9.624963,3.37732 0.13596,1.2065 0.478001,2.42436 0.760026,2.70639 0.591147,0.59114 10.403032,1.75815 13.996366,1.66468 2.404253,-0.0626 2.427244,-0.0785 2.81329,-1.94673 z m -3.513222,0.9224 c -0.463064,-0.55796 -0.47603,-1.09886 -0.05527,-2.30586 1.212689,-3.47871 3.392127,-5.32026 2.78544,-2.35359 -0.164924,0.80647 -0.433747,2.11903 -0.597399,2.91683 -0.397067,1.93575 -1.335881,2.70281 -2.132772,1.74262 z m -4.412302,-1.23812 c 0,-0.62996 0.247511,-0.97647 0.610948,-0.85533 0.336022,0.11196 0.610947,0.4969 0.610947,0.85533 0,0.3584 -0.274925,0.74331 -0.610947,0.85533 -0.363437,0.12123 -0.610948,-0.2254 -0.610948,-0.85533 z m -5.171478,-0.0639 c -0.527699,-0.85383 0.549966,-1.52645 1.196846,-0.747 0.453921,0.54693 0.421302,0.75698 -0.151698,0.97686 -0.401481,0.15408 -0.871798,0.0506 -1.045156,-0.22986 z m 2.574946,0.23702 c -0.637391,-0.63738 -0.333084,-1.15062 0.682225,-1.15062 0.568792,0 0.932848,0.2562 0.824779,0.5804 -0.238079,0.71425 -1.054184,1.02304 -1.507004,0.57022 z m -5.386535,-0.49894 c -0.619633,-0.61965 -0.322036,-1.14043 0.651683,-1.14043 0.543068,0 0.977519,0.32584 0.977519,0.73314 0,0.74409 -1.033921,1.00257 -1.629202,0.40729 z m -0.325823,-2.81036 c 0,-0.42562 0.34823,-0.77387 0.773855,-0.77387 0.425632,0 0.686811,0.26117 0.580402,0.5804 -0.302086,0.90628 -1.354257,1.05659 -1.354257,0.19347 z m 2.932543,-0.0406 c 0,-0.40323 0.329913,-0.73313 0.733138,-0.73313 0.403226,0 0.733138,0.3299 0.733138,0.73313 0,0.40322 -0.329912,0.73315 -0.733138,0.73315 -0.403225,0 -0.733138,-0.32993 -0.733138,-0.73315 z m 52.297181,4.64426 c 9.995108,-1.67101 9.912345,-1.64749 10.098754,-2.86891 0.149447,-0.97905 0.01159,-1.11109 -0.929303,-0.88473 -0.607708,0.14631 -3.304338,0.63405 -5.992517,1.08379 -2.688165,0.44976 -5.00806,0.88979 -5.155304,0.97787 -0.563686,0.3372 -1.572943,-0.68663 -1.321846,-1.34093 0.242735,-0.63257 2.826636,-1.21546 10.257954,-2.31401 1.272993,-0.1882 2.411444,-0.43907 2.529868,-0.55749 0.118398,-0.1184 -0.04342,-1.04755 -0.359497,-2.06469 -0.46174,-1.4855 -0.76714,-1.80249 -1.552343,-1.61118 -0.537635,0.13098 -2.124776,0.38778 -3.526976,0.57063 -2.218373,0.28931 -2.535729,0.46741 -2.443794,1.37142 0.06558,0.64462 -0.172585,1.03894 -0.627471,1.03894 -0.427096,0 -0.673195,-0.35704 -0.58953,-0.85533 0.109895,-0.65441 -0.196446,-0.85534 -1.304106,-0.85534 -2.205593,0 -2.993952,0.47495 -2.993952,1.80368 0,0.75222 -0.231257,1.13244 -0.610955,1.00454 -0.336024,-0.11325 -0.85293,0.12265 -1.148707,0.52399 -0.445738,0.60495 -0.894814,0.25688 -2.624702,-2.03433 -1.147818,-1.52029 -2.227727,-2.76417 -2.399784,-2.76417 -0.172058,0 -0.87299,-0.51938 -1.557599,-1.15419 -3.08259,-2.85835 -11.622076,-4.93073 -12.362873,-3.00026 -0.206763,0.53882 0.07085,0.73776 1.047416,0.75055 1.942356,0.0255 6.447168,1.21602 8.396486,2.21908 3.486277,1.79396 8.328168,8.32786 8.328168,11.23847 0,0.89069 -0.190532,0.89841 6.842613,-0.27742 z m -6.267513,-2.28215 c 0.192645,-0.99332 0.906938,-1.26897 1.809121,-0.69817 0.885371,0.5602 0.266557,1.51299 -0.982627,1.51299 -0.656343,0 -0.931841,-0.27161 -0.826494,-0.81482 z m 3.823719,-4.60227 c 0,-1.19113 1.142123,-1.02277 1.379924,0.20342 0.09353,0.48229 -0.155799,0.81483 -0.610942,0.81483 -0.453392,0 -0.768982,-0.41788 -0.768982,-1.01825 z m 26.392975,2.70306 c 8.1291,-1.422 9.58266,-1.67141 13.92962,-2.39025 8.58598,-1.41983 9.55284,-1.5977 9.72452,-1.78915 0.426,-0.47505 0.8449,-2.48852 0.46957,-2.25713 -0.2304,0.14208 -3.27816,0.72393 -6.77278,1.293 -3.49462,0.5691 -8.22338,1.36519 -10.50831,1.76911 -2.28495,0.40393 -5.36414,0.94776 -6.84262,1.20852 -1.4785,0.26078 -4.00782,0.72625 -5.62073,1.0344 -1.6129,0.30814 -3.85302,0.66063 -4.97803,0.78329 -1.9081,0.20808 -2.012326,0.29579 -1.55202,1.30607 0.48676,1.0683 0.54441,1.07407 4.24489,0.42595 2.06328,-0.36139 5.62093,-0.98411 7.90589,-1.38381 z m -8.55328,-2.69513 c 1.6129,-0.28375 4.91201,-0.8311 7.33138,-1.21633 4.73831,-0.75448 9.78077,-1.6432 16.3734,-2.88574 2.28496,-0.43065 5.28283,-0.91421 6.66194,-1.07458 l 2.50746,-0.29158 -0.79682,-1.52613 c -0.43824,-0.83937 -0.7968,-1.55548 -0.7968,-1.59135 0,-0.0359 -1.31965,0.13754 -2.93255,0.38539 -1.61292,0.24784 -5.02201,0.76486 -7.57578,1.14894 -2.55375,0.38408 -6.73264,1.02741 -9.2864,1.42963 -2.55377,0.40222 -6.84263,1.07491 -9.53081,1.49487 -6.612559,1.03305 -6.432875,0.95033 -6.390282,2.94207 0.04136,1.93319 0.09675,1.94802 4.435262,1.18481 z m -19.79472,-0.15924 c 0,-0.46367 -1.463048,-0.69733 -1.723859,-0.27534 -0.158878,0.25708 0.163992,0.46742 0.717487,0.46742 0.553508,0 1.006372,-0.0864 1.006372,-0.19208 z m -47.653984,-2.3498 c 0.310123,-0.29219 -0.122714,-0.40311 -1.184256,-0.30347 -0.920158,0.0863 -1.766466,0.44156 -1.880684,0.7893 -0.152954,0.46547 0.159606,0.54552 1.184261,0.30347 0.765558,-0.18084 1.611864,-0.53602 1.880679,-0.7893 z m 18.636015,-0.0765 c 1.162101,-1.07755 2.521716,-1.77413 6.487226,-3.3236 0.801736,-0.31327 1.015202,-0.6176 0.673119,-0.95968 -0.725357,-0.72536 -3.818735,0.21464 -6.682041,2.0305 -2.775308,1.76005 -4.705988,1.64326 -2.713304,-0.16414 1.796311,-1.62927 3.368666,-2.52448 6.204077,-3.53227 2.388013,-0.84877 2.565985,-1.02312 2.565985,-2.5139 0,-1.78818 0.521646,-1.73236 -5.865107,-0.62759 -1.478493,0.25576 -4.337734,0.68786 -6.353863,0.96021 -2.016128,0.27235 -5.500393,0.74474 -7.742807,1.04972 l -4.077113,0.55453 0.32431,2.25066 c 0.583208,4.04736 0.765813,4.45008 2.017801,4.45008 0.642898,0 1.168925,0.16496 1.168945,0.36657 1.6e-5,0.20161 2.855149,0.43426 6.344738,0.51699 6.170791,0.14631 6.380438,0.11723 7.648034,-1.05808 z m -15.608715,-1.11554 c -0.456131,-0.45614 0.09508,-1.15373 0.911618,-1.15373 0.387361,0 0.704291,0.32992 0.704291,0.73314 0,0.73618 -1.031766,1.00473 -1.615909,0.42059 z m 2.593426,-0.90935 c 0,-0.40322 0.329914,-0.73314 0.733138,-0.73314 0.403227,0 0.733139,0.32992 0.733139,0.73314 0,0.40323 -0.329912,0.73314 -0.733139,0.73314 -0.403224,0 -0.733138,-0.32991 -0.733138,-0.73314 z m -3.095471,-2.0365 c -0.562384,-0.56237 -0.355933,-1.14043 0.407298,-1.14043 0.403227,0 0.733138,0.32992 0.733138,0.73314 0,0.76324 -0.578055,0.96968 -1.140436,0.40729 z m 2.606714,-0.89605 c 0,-0.40322 0.32991,-0.73314 0.733138,-0.73314 0.403225,0 0.733138,0.32992 0.733138,0.73314 0,0.40323 -0.329913,0.73314 -0.733138,0.73314 -0.403228,0 -0.733138,-0.32991 -0.733138,-0.73314 z m 2.443792,-0.48875 c 0,-0.40324 0.329913,-0.73314 0.733139,-0.73314 0.403225,0 0.733137,0.3299 0.733137,0.73314 0,0.40322 -0.329912,0.73314 -0.733137,0.73314 -0.403226,0 -0.733139,-0.32992 -0.733139,-0.73314 z m 2.992171,0.0719 c -0.594115,-0.71587 -0.256885,-1.29374 0.754981,-1.29374 0.728104,0 0.892171,1.25996 0.218299,1.67642 -0.238357,0.14733 -0.676334,-0.0249 -0.97328,-0.38268 z m 94.051072,5.54889 c 0.43993,0 0.56707,-0.3002 0.36224,-0.85533 -0.59131,-1.60265 -1.10587,-1.64019 -3.51126,-0.2562 -0.51647,0.29716 1.17456,1.60908 1.77637,1.37815 0.38215,-0.14664 0.99984,-0.26662 1.37265,-0.26662 z m -52.077432,-0.98831 c 1.478482,-0.26107 3.787877,-0.64458 5.131959,-0.85225 2.757221,-0.42599 2.690086,-0.1941 1.922211,-6.6388 -0.310695,-2.60765 -0.261725,-2.84343 0.557902,-2.68559 0.916046,0.17642 1.218367,1.12435 1.9038,5.96925 l 0.33672,2.38006 2.2829,-0.27645 c 1.25557,-0.15205 4.48229,-0.61886 7.17046,-1.03735 2.68818,-0.41848 6.53714,-0.98832 8.55328,-1.26631 2.01614,-0.27797 4.7654,-0.70871 6.10948,-0.95718 1.3441,-0.24848 4.20333,-0.69439 6.35388,-0.9909 5.84526,-0.80596 5.76512,-0.76392 5.42421,-2.84605 -0.16071,-0.9816 -0.55387,-3.73567 -0.87363,-6.12017 l -0.58143,-4.33546 -2.47334,0.31152 c -1.36034,0.17134 -4.45281,0.62086 -6.87216,0.99893 -2.41936,0.37808 -7.21377,1.07442 -10.65425,1.54743 -4.64998,0.63929 -6.0298,0.98099 -5.37634,1.33138 0.48348,0.25925 0.91617,0.49437 0.96153,0.52248 0.0452,0.0281 0.2297,0.63772 0.40964,1.3547 0.45572,1.81575 -1.0083,2.64861 -5.8131,3.30696 -4.36238,0.59772 -5.187315,0.2874 -5.187315,-1.9513 0,-1.52733 -4.25e-4,-1.52713 5.131965,-2.47058 4.63566,-0.85215 2.48288,-1.20104 -2.56598,-0.41586 l -4.032254,0.62708 v 1.63189 c 0,1.12474 -0.227855,1.63191 -0.733141,1.63191 -0.747776,0 -0.922565,-0.50257 -0.746836,-2.1473 0.08812,-0.82503 -0.131023,-0.8895 -2.020936,-0.5944 -1.165893,0.18205 -4.319225,0.65839 -7.007404,1.05854 -2.688178,0.40016 -7.086997,1.05631 -9.775176,1.45812 -2.688179,0.40182 -6.357516,0.93887 -8.1541,1.19344 -5.6592,0.80193 -5.744643,0.84349 -5.122561,2.49157 0.296373,0.78519 0.875543,1.42952 1.287038,1.43185 0.411496,0.003 1.95785,0.14065 3.436345,0.30739 2.224119,0.2508 2.582701,0.19101 2.077222,-0.34638 -0.70204,-0.74636 -0.777871,-1.87782 -0.188148,-2.8078 0.224299,-0.35373 1.705538,-0.85931 3.291635,-1.12351 1.586097,-0.2642 3.601648,-0.60405 4.479005,-0.75521 1.973023,-0.33993 3.048011,0.47104 3.048011,2.29942 0,1.60756 -1.316164,2.17957 -6.231671,2.70829 -1.680106,0.18072 -3.054749,0.52012 -3.054749,0.75421 0,0.23409 0.338678,0.42562 0.752621,0.42562 1.288877,0 4.28511,1.76308 6.579431,3.87156 2.142607,1.96907 2.267395,2.01376 4.886919,1.75028 1.478495,-0.1487 3.897862,-0.48398 5.376357,-0.74503 z m -8.090844,-0.0318 c -0.503675,-0.81496 0.629133,-1.74952 1.303384,-1.07527 0.563983,0.56401 0.211004,1.60663 -0.543922,1.60663 -0.237093,0 -0.57885,-0.2391 -0.759462,-0.53135 z m 3.325441,-1.05711 c 0.112086,-0.33602 0.496899,-0.61094 0.855327,-0.61094 0.358415,0 0.743319,0.27492 0.855327,0.61094 0.121103,0.36344 -0.225369,0.61096 -0.855327,0.61096 -0.629958,0 -0.976469,-0.24752 -0.855327,-0.61096 z m 3.421307,-0.48877 c 0.112085,-0.33602 0.496911,-0.61094 0.855327,-0.61094 0.358428,0 0.743318,0.27492 0.855326,0.61094 0.121104,0.36344 -0.225368,0.61096 -0.855326,0.61096 -0.629945,0 -0.976469,-0.24752 -0.855327,-0.61096 z m 3.299121,-0.61094 c 0,-0.40323 0.329917,-0.73314 0.73314,-0.73314 0.403224,0 0.733141,0.32991 0.733141,0.73314 0,0.40323 -0.329917,0.73313 -0.733141,0.73313 -0.403223,0 -0.73314,-0.3299 -0.73314,-0.73313 z m -12.218971,-0.48877 c 0,-0.40322 0.329918,-0.73313 0.733141,-0.73313 0.403224,0 0.733141,0.32991 0.733141,0.73313 0,0.40324 -0.329917,0.73314 -0.733141,0.73314 -0.403223,0 -0.733141,-0.3299 -0.733141,-0.73314 z m 15.64029,0.0407 c 0,-0.42561 0.348237,-0.77385 0.773865,-0.77385 0.425628,0 0.686799,0.26117 0.580396,0.58039 -0.302089,0.90627 -1.354261,1.05658 -1.354261,0.19347 z m -12.21897,-0.52948 c 0,-0.40322 0.329904,-0.73313 0.733141,-0.73313 0.403223,0 0.733128,0.32991 0.733128,0.73313 0,0.40322 -0.329905,0.73314 -0.733128,0.73314 -0.403237,0 -0.733141,-0.32992 -0.733141,-0.73314 z m 3.421306,-0.48876 c 0,-0.40322 0.329918,-0.73314 0.733141,-0.73314 0.403224,0 0.733141,0.32992 0.733141,0.73314 0,0.40323 -0.329917,0.73314 -0.733141,0.73314 -0.403223,0 -0.733141,-0.32991 -0.733141,-0.73314 z m -8.722141,-0.45828 c 0.09289,-0.44838 0.388807,-0.80363 0.657618,-0.78943 0.725463,0.0383 0.592184,1.13178 -0.168849,1.38546 -0.411108,0.13703 -0.594335,-0.0864 -0.488769,-0.59603 z m 55.642983,-4.4293 c 0,-0.50341 0.32033,-0.74313 0.85532,-0.64009 1.03023,0.19839 0.96526,1.06582 -0.0964,1.28687 -0.4428,0.0922 -0.75894,-0.17722 -0.75894,-0.64678 z m -5.86511,-4.88759 c 0,-0.40323 0.32991,-0.73314 0.73313,-0.73314 0.40323,0 0.73314,0.32991 0.73314,0.73314 0,0.40323 -0.32991,0.73314 -0.73314,0.73314 -0.40322,0 -0.73313,-0.32991 -0.73313,-0.73314 z m 2.55581,-0.33602 c 0.30207,-0.90627 1.35424,-1.05658 1.35424,-0.19347 0,0.42563 -0.34822,0.77387 -0.77385,0.77387 -0.42564,0 -0.6868,-0.26118 -0.58039,-0.5804 z m 2.59209,0.11744 c -0.42974,-0.69532 0.11827,-1.49207 1.02625,-1.49207 0.42824,0 0.67354,0.34338 0.58212,0.81482 -0.19037,0.98166 -1.16626,1.39258 -1.60837,0.67725 z m -95.801835,10.36034 c -0.397722,-2.1292 -0.499345,-2.28609 -1.200187,-1.85295 -0.2867,0.1772 -0.521277,1.07898 -0.521277,2.00398 0,1.38552 0.181791,1.68181 1.031914,1.68181 0.927458,0 0.997258,-0.18554 0.68955,-1.83284 z m 105.584055,-1.58379 c 0.39681,-2.54385 2.406,-6.55761 4.37177,-8.73347 0.95306,-1.05493 2.99342,-2.54249 4.53414,-3.30571 2.50755,-1.24215 3.31386,-1.38865 7.6889,-1.39702 4.51183,-0.009 5.08857,0.10197 7.50165,1.43858 1.43773,0.79635 3.55007,2.489 4.69409,3.76143 1.60568,1.78589 2.21241,2.18115 2.66045,1.73309 0.44806,-0.44805 0.67989,-0.41947 1.01658,0.1253 0.56643,0.91651 0.11273,1.62882 -0.81154,1.27414 -0.44398,-0.17038 -0.64571,-0.0414 -0.521,0.33324 0.11196,0.33621 0.61415,0.69086 1.116,0.78812 1.48486,0.28776 6.09353,-1.00241 6.09353,-1.70583 0,-0.35185 -0.30765,-0.52168 -0.68369,-0.37738 -1.05028,0.40303 -1.54034,-0.8426 -0.60154,-1.52906 0.67629,-0.49451 0.76141,-1.09003 0.48815,-3.41501 l -0.33095,-2.81604 -4.34049,0.30809 c -4.91085,0.34859 -4.69826,0.50009 -5.21978,-3.72007 -0.31545,-2.55248 -0.32281,-2.56164 -2.02333,-2.51411 -0.93871,0.0263 -4.23607,0.43281 -7.32748,0.90349 -3.0914,0.47069 -6.8304,1.0406 -8.30888,1.26647 -1.47851,0.22586 -5.10754,0.76625 -8.06453,1.20086 -6.53418,0.96038 -9.95126,1.57032 -9.25661,1.65226 0.59676,0.0704 1.51377,3.48625 1.98456,7.39256 0.17827,1.4785 0.5006,3.16562 0.71645,3.74914 0.65981,1.78371 2.27009,0.86622 3.66877,-2.09036 3.31937,-7.01655 11.63927,-11.59669 19.47123,-10.71897 3.2702,0.36648 7.1204,1.84328 7.1204,2.73114 0,0.31269 0.30925,0.44986 0.68722,0.30482 0.73568,-0.2823 2.24533,1.08288 2.24533,2.03046 0,0.90304 -1.05444,0.67058 -2.31042,-0.50934 -1.5394,-1.4462 -4.95748,-2.41725 -9.4333,-2.67994 -4.99984,-0.29345 -8.51829,1.01531 -12.20355,4.53935 -3.00832,2.87671 -3.99561,4.53236 -5.14694,8.63101 -0.82215,2.92681 -2.18635,3.91796 -2.18635,1.58845 0,-0.72192 -0.28019,-1.2219 -0.68476,-1.2219 -0.46361,0 -0.66938,0.54262 -0.63712,1.68017 0.0263,0.9241 0.17991,1.59844 0.34152,1.49853 0.16164,-0.0999 0.59364,0.004 0.95997,0.23001 1.07005,0.66133 2.43968,-0.55532 2.73155,-2.4265 z m -4.17743,-4.6479 c 0,-0.40322 0.32991,-0.73312 0.73314,-0.73312 0.40323,0 0.73313,0.3299 0.73313,0.73312 0,0.40324 -0.3299,0.73315 -0.73313,0.73315 -0.40323,0 -0.73314,-0.32991 -0.73314,-0.73315 z m 38.12318,-1.42554 c 0,-0.42563 0.34825,-0.77387 0.77385,-0.77387 0.42565,0 0.68683,0.26118 0.58043,0.5804 -0.30209,0.90627 -1.35428,1.05659 -1.35428,0.19347 z m -38.61193,-1.50701 c 0,-0.40322 0.3299,-0.73314 0.73313,-0.73314 0.40322,0 0.73314,0.32992 0.73314,0.73314 0,0.40323 -0.32992,0.73314 -0.73314,0.73314 -0.40323,0 -0.73313,-0.32991 -0.73313,-0.73314 z m 2.72238,-0.189 c -0.33262,-0.5382 0.91284,-1.63358 1.35483,-1.19158 0.17698,0.17687 0.32162,0.61485 0.32162,0.97328 0,0.7281 -1.25996,0.89217 -1.67645,0.2183 z m 31.80873,-0.77287 c -0.34469,-0.89826 0.57172,-1.52086 1.24602,-0.84654 0.52171,0.5217 0.1465,1.56403 -0.56307,1.56403 -0.22418,0 -0.53152,-0.32287 -0.68295,-0.71749 z m -35.01988,-1.48193 c 0,-0.40322 0.32992,-0.73314 0.73314,-0.73314 0.40322,0 0.73313,0.32992 0.73313,0.73314 0,0.40323 -0.32991,0.73314 -0.73313,0.73314 -0.40322,0 -0.73314,-0.32991 -0.73314,-0.73314 z m 2.93255,-0.73314 c 0,-0.62995 0.24751,-0.97647 0.61095,-0.85532 0.33601,0.11199 0.61095,0.4969 0.61095,0.85532 0,0.35842 -0.27494,0.74332 -0.61095,0.85533 -0.36344,0.12114 -0.61095,-0.22537 -0.61095,-0.85533 z m -3.42131,-2.19941 c 0,-0.40323 0.32991,-0.73314 0.73316,-0.73314 0.40322,0 0.73312,0.32991 0.73312,0.73314 0,0.40322 -0.3299,0.73314 -0.73312,0.73314 -0.40325,0 -0.73316,-0.32992 -0.73316,-0.73314 z m 2.93255,-0.48876 c 0,-0.40323 0.32991,-0.73314 0.73316,-0.73314 0.40322,0 0.73312,0.32991 0.73312,0.73314 0,0.40323 -0.3299,0.73314 -0.73312,0.73314 -0.40325,0 -0.73316,-0.32991 -0.73316,-0.73314 z m 2.93255,-0.48876 c 0,-0.40323 0.32991,-0.73314 0.73316,-0.73314 0.40322,0 0.73312,0.32991 0.73312,0.73314 0,0.40323 -0.3299,0.73314 -0.73312,0.73314 -0.40325,0 -0.73316,-0.32991 -0.73316,-0.73314 z m 2.93257,-0.48876 c 0,-0.40322 0.3299,-0.73313 0.73314,-0.73313 0.40322,0 0.73312,0.32991 0.73312,0.73313 0,0.40323 -0.3299,0.73314 -0.73312,0.73314 -0.40324,0 -0.73314,-0.32991 -0.73314,-0.73314 z m 32.77109,13.6727 c 2.1249,-1.09882 1.83779,-1.8799 -0.57219,-1.55665 -2.19802,0.29481 -3.16788,0.94167 -2.65531,1.771 0.45461,0.73558 1.52845,0.66427 3.2275,-0.21435 z M 39.472029,128.88008 c 1.344088,-0.24378 4.093355,-0.66063 6.109484,-0.92634 2.016132,-0.26572 5.920091,-0.8201 8.67547,-1.23195 2.755375,-0.41185 7.264174,-1.08579 10.019553,-1.49765 2.755378,-0.41185 6.329431,-0.94946 7.942325,-1.19469 1.612907,-0.24522 5.351918,-0.7979 8.308908,-1.22817 2.95699,-0.43027 7.465781,-1.09245 10.019547,-1.47152 2.553767,-0.37906 6.952599,-1.024 9.775174,-1.43318 5.99477,-0.86906 13.5832,-2.0133 18.08407,-2.72686 1.74732,-0.27701 5.48631,-0.83885 8.3089,-1.24852 2.82258,-0.40966 7.33139,-1.07162 10.01957,-1.47099 2.68815,-0.39937 6.42717,-0.93713 8.30888,-1.19501 1.88173,-0.25788 3.97117,-0.58068 4.6432,-0.71733 0.67206,-0.13664 3.75122,-0.60174 6.84263,-1.03355 3.0914,-0.4318 6.72042,-0.95921 8.06453,-1.17202 1.34407,-0.21281 3.61041,-0.55177 5.0363,-0.75325 2.80265,-0.39601 2.85344,-1.06308 0.0957,-1.25685 -3.791,-0.26638 -9.04371,0.0694 -8.31298,0.53135 0.46897,0.29649 0.55615,0.61317 0.24437,0.88771 -0.57567,0.50693 -8.16899,1.42626 -15.51401,1.87831 -4.51198,0.27769 -5.25416,0.21868 -5.25416,-0.41781 0,-0.85868 1.81868,-1.26018 7.57578,-1.67247 6.80716,-0.4875 4.70498,-0.81149 -3.15102,-0.48565 -6.96894,0.28905 -7.64588,0.40001 -8.79767,1.44203 -1.55852,1.41 -3.58934,2.29082 -5.28173,2.29082 -1.16951,0 -5.66905,0.62458 -14.05014,1.95029 -1.6129,0.25513 -6.23169,0.90737 -10.26393,1.44944 -4.03227,0.54206 -8.760996,1.20485 -10.508316,1.47287 -1.747306,0.26802 -4.60655,0.70637 -6.353857,0.97412 -1.747319,0.26775 -5.706261,0.83531 -8.797663,1.26124 -3.091389,0.42594 -7.050345,0.97158 -8.797651,1.21255 -1.747319,0.24096 -5.486321,0.7761 -8.308902,1.18918 -2.822582,0.41308 -7.661293,1.10468 -10.752691,1.53689 -3.0914,0.43221 -6.720433,0.95234 -8.06452,1.15584 -1.344088,0.20351 -4.533237,0.65501 -7.087002,1.00334 -3.626257,0.49462 -4.828151,0.85732 -5.487666,1.6561 -1.941654,2.35167 -0.688794,2.58353 6.709561,1.24173 z M 137.7298,111.82692 c -0.50626,-0.81916 0.17752,-1.49423 1.51369,-1.49423 0.90663,0 1.18614,0.2243 1.06586,0.85533 -0.18344,0.96206 -2.08823,1.43386 -2.57955,0.6389 z m -62.089619,16.58985 c 0.814512,-0.35001 0.707812,-0.42579 -0.639801,-0.45441 -0.960958,-0.0205 -1.494715,0.164 -1.315237,0.45441 0.352141,0.56978 0.629069,0.56978 1.955038,0 z m 3.044558,-0.78406 c -0.162421,-0.16241 -0.583965,-0.17977 -0.936788,-0.0385 -0.389903,0.15602 -0.274094,0.27184 0.295286,0.29529 0.515232,0.0213 0.803909,-0.0943 0.641502,-0.2567 z m 24.814681,-3.12602 c 0.17069,-0.27605 -0.2297,-0.48875 -0.91983,-0.48875 -0.67204,0 -1.35783,0.21994 -1.52398,0.48875 -0.17067,0.27606 0.2297,0.48876 0.91984,0.48876 0.67205,0 1.35783,-0.21994 1.52397,-0.48876 z m -63.862068,-0.77977 c 0.921832,-0.19199 1.031843,-0.37176 0.568871,-0.92961 -0.626417,-0.75478 -0.213317,-1.9008 0.521478,-1.44667 0.250239,0.15465 0.454984,0.7081 0.454984,1.22987 0,1.69924 0.88045,1.00379 2.163921,-1.70924 1.306614,-2.76195 1.582152,-3.95436 0.802405,-3.47245 -0.683592,0.42248 -1.200583,-0.71848 -0.598413,-1.32065 0.371775,-0.37177 0.713334,-0.36542 1.180095,0.0219 0.523598,0.43455 1.028591,-0.20604 2.488796,-3.15706 1.007554,-2.03623 1.7408,-3.79335 1.629445,-3.90471 -0.478969,-0.47896 -3.196184,1.64684 -5.306963,4.15188 -1.863241,2.21127 -2.157497,2.80541 -1.597581,3.22561 0.45467,0.34123 0.53701,0.75194 0.243944,1.2168 -0.348224,0.55235 -0.592565,0.57707 -1.147932,0.11616 -0.559389,-0.46426 -0.845529,-0.41598 -1.381335,0.2331 -0.525817,0.63696 -0.540205,0.86428 -0.06486,1.02427 0.336021,0.11309 0.610947,0.51721 0.610947,0.89803 0,0.85248 -1.45906,0.93253 -1.484629,0.0815 -0.02185,-0.72698 -3.385136,3.06196 -3.395684,3.82542 -0.007,0.50058 1.661209,0.46802 4.3125,-0.0842 z m -2.364738,-1.21599 c 0,-1.19113 1.142118,-1.02276 1.379923,0.20342 0.09355,0.48229 -0.155798,0.81483 -0.610947,0.81483 -0.453389,0 -0.768976,-0.41789 -0.768976,-1.01825 z m 4.175325,-2.85805 c -0.361461,-0.58485 0.557977,-1.16434 1.208994,-0.76198 0.546608,0.33782 0.187768,1.21697 -0.496731,1.21697 -0.237086,0 -0.557606,-0.20475 -0.712263,-0.45499 z m 65.594991,4.02814 c -0.47044,-0.12293 -1.24023,-0.12293 -1.71066,0 -0.47045,0.12293 -0.0855,0.22352 0.85533,0.22352 0.94085,0 1.32575,-0.10058 0.85533,-0.22352 z m -53.152518,-1.93495 c 2.553764,-0.41019 4.717426,-0.8192 4.808135,-0.9089 0.161877,-0.16009 0.447489,-1.21224 1.790108,-6.59441 0.368822,-1.47849 0.892444,-3.56176 1.163613,-4.62949 0.271164,-1.06771 0.435024,-1.99931 0.36413,-2.0702 -0.0709,-0.0709 -1.653316,0.19404 -3.516492,0.58874 -1.863179,0.3947 -3.974449,0.72145 -4.691709,0.72612 -2.159995,0.014 -2.830689,0.50764 -3.90875,2.87654 -0.566657,1.24515 -1.788046,3.8035 -2.714204,5.68522 -2.962591,6.01925 -2.948603,5.72873 -0.25889,5.37629 1.276467,-0.16726 4.410294,-0.63972 6.964059,-1.04991 z m 10.563713,-1.6382 c 0.03402,0 0.185381,-0.93475 0.336365,-2.07723 0.259209,-1.96139 1.020846,-6.76625 1.554779,-9.80844 0.20941,-1.19314 0.09981,-1.35656 -0.819499,-1.22189 -0.695192,0.10184 -1.206156,0.6612 -1.481386,1.62173 -1.355303,4.72992 -3.116717,12.0063 -2.947391,12.17563 0.109122,0.10912 0.895182,-0.001 1.746829,-0.24571 0.851648,-0.24426 1.576282,-0.44409 1.610303,-0.44409 z m 13.385465,-1.74596 c 3.091402,-0.42125 6.987654,-0.92617 8.65833,-1.12204 1.670689,-0.19587 3.185644,-0.50416 3.366565,-0.68509 0.180921,-0.18092 0.0925,-1.27001 -0.196407,-2.42019 -1.307777,-5.20556 -2.053312,-8.72964 -2.053312,-9.70579 0,-0.98657 -0.177262,-1.04131 -2.56598,-0.79246 -1.411295,0.14702 -4.765402,0.64219 -7.453581,1.10037 -2.688165,0.45818 -5.753698,0.96996 -6.812285,1.13729 -1.638622,0.25902 -1.973809,0.52218 -2.255146,1.77052 -0.438051,1.94369 -1.346824,7.26426 -1.719307,10.06592 l -0.298577,2.24579 2.854494,-0.4142 c 1.569954,-0.22781 5.383804,-0.75886 8.475206,-1.18012 z m 8.038202,-10.02684 c -0.419418,-0.67863 0.510246,-1.6354 1.184278,-1.21882 0.561328,0.34691 0.201908,1.75017 -0.448264,1.75017 -0.224196,0 -0.555402,-0.23911 -0.736014,-0.53135 z m -3.63937,-2.64559 c 0,-0.40322 0.329904,-0.73313 0.733141,-0.73313 0.403223,0 0.733128,0.32991 0.733128,0.73313 0,0.40323 -0.329905,0.73314 -0.733128,0.73314 -0.403237,0 -0.733141,-0.32991 -0.733141,-0.73314 z m 2.93255,-0.48875 c 0,-0.50341 0.320332,-0.74313 0.855327,-0.6401 1.030231,0.1984 0.96526,1.06583 -0.09637,1.28688 -0.442814,0.0922 -0.758959,-0.17721 -0.758959,-0.64678 z m 89.022888,10.99707 c 0.53152,0 0.85314,-0.18327 0.71469,-0.40727 -0.34214,-0.55361 -3.22729,-0.0932 -3.22729,0.51503 0,0.26707 0.34789,0.35208 0.77311,0.18891 0.42521,-0.16317 1.208,-0.29667 1.73949,-0.29667 z m -79.001639,-0.49151 c 0.275227,-0.44532 -1.701236,-6.99376 -2.659333,-8.81095 -0.21724,-0.41205 -0.553676,-1.47163 -0.747609,-2.35463 -0.367163,-1.6717 -1.458191,-2.49218 -2.254744,-1.69564 -0.28172,0.28172 -0.291679,1.02307 -0.02551,1.89775 0.240249,0.78948 0.803897,3.19495 1.25256,5.34549 0.44865,2.15054 0.91897,4.40494 1.045176,5.00978 0.174672,0.83718 0.570359,1.09971 1.657561,1.09971 0.78546,0 1.564813,-0.22118 1.731885,-0.49151 z m 9.773469,-1.17413 4.88759,-0.53456 0.0643,-3.38515 c 0.0504,-2.65277 0.25564,-3.52506 0.94874,-4.03186 1.96398,-1.43611 3.1414,-0.0166 3.1414,3.78701 0,1.5937 0.16496,2.89583 0.36657,2.8936 0.42016,-0.004 3.05474,-5.65999 3.05474,-6.55723 0,-0.32667 -1.15469,-1.20613 -2.56598,-1.95436 -1.41128,-0.74824 -3.99561,-2.11142 -5.74292,-3.02931 l -3.17694,-1.66887 -6.353854,1.05406 c -3.494613,0.57974 -6.445831,1.13382 -6.558238,1.2313 -0.112343,0.0975 0.02976,0.67177 0.315861,1.27621 0.28614,0.60443 1.217092,3.07844 2.068785,5.49779 2.42796,6.89699 2.321995,6.70954 3.566605,6.30878 0.602671,-0.19406 3.295161,-0.59339 5.983341,-0.88741 z m 66.97557,-2.19523 c -0.17919,-0.5647 -0.55452,-1.02672 -0.834,-1.02672 -0.27945,0 -0.37461,0.3479 -0.21144,0.77311 0.16312,0.42521 0.29668,1.12903 0.29668,1.56403 0,0.57492 0.14668,0.64418 0.53731,0.2536 0.29552,-0.29551 0.39067,-0.99933 0.21145,-1.56402 z m -52.31281,-0.0492 c 0.16608,-0.26882 0.0691,-0.48876 -0.21553,-0.48876 -0.28469,0 -0.51761,-0.46682 -0.51761,-1.03736 0,-0.86669 -0.12058,-0.93726 -0.73312,-0.42892 -1.06997,0.88798 -0.93273,2.44379 0.21551,2.44379 0.52179,0 1.08461,-0.21994 1.25075,-0.48875 z m 11.48585,-1.54528 c 3.15555,-0.55125 3.40508,-0.66276 1.79309,-0.80132 -1.02993,-0.0885 -2.89944,-0.73616 -4.15446,-1.43919 -3.8587,-2.16155 -4.70104,-2.56194 -5.39644,-2.56507 -0.54087,-0.002 -0.55293,0.13899 -0.0622,0.73013 0.33465,0.40323 0.9939,0.73314 1.46503,0.73314 0.9426,0 1.66062,2.3494 1.13592,3.71675 -0.23228,0.60534 -0.0835,0.73182 0.62425,0.53041 0.51108,-0.14547 2.57881,-0.55264 4.59495,-0.90485 z m -9.37616,-1.71615 c -0.19926,-1.6833 -1.37656,-2.13354 -1.37656,-0.52645 0,1.2387 0.35382,1.83284 1.09146,1.83284 0.24185,0 0.37017,-0.58788 0.2851,-1.30639 z m -55.873138,-4.07412 c 3.225804,-0.58331 6.964814,-1.24268 8.308897,-1.46527 4.348986,-0.72023 11.134912,-1.88228 15.640277,-2.67829 2.419354,-0.42746 5.608515,-0.974056 7.08701,-1.214662 4.337464,-0.705875 7.971684,-1.46888 8.230884,-1.728074 0.41724,-0.417254 -6.408674,-0.203797 -8.964025,0.280317 -2.246717,0.42564 -8.140586,1.422137 -14.174008,2.396449 -6.301009,1.01752 -20.966428,4.21293 -22.4829,4.89874 -0.537634,0.24314 -1.417399,0.55648 -1.955035,0.69631 -1.886657,0.49068 2.501884,-0.13548 8.3089,-1.18552 z m 55.474108,-0.0208 c 0,-0.28253 -0.7148,-0.83894 -1.58847,-1.23646 -0.87366,-0.39752 -3.21543,-1.60703 -5.20396,-2.6878 -1.98853,-1.080758 -4.06235,-1.898986 -4.6085,-1.818277 -0.66849,0.09879 0.83247,1.141277 4.59301,3.190057 5.60719,3.05483 6.80792,3.50502 6.80792,2.55247 z m 31.12267,41.85018 c -3.02614,-1.48264 -4.49581,-2.87183 -6.24341,-5.90145 -1.19329,-2.0687 -1.41036,-2.98151 -1.41426,-5.9468 -0.004,-2.38806 0.29687,-4.20622 0.94253,-5.71252 2.88013,-6.71905 11.58461,-10.01079 17.90548,-6.77127 8.76871,4.49407 10.44657,15.77911 3.28351,22.08431 -3.90541,3.43771 -10.08605,4.39752 -14.47385,2.24773 z m 10.31911,-2.19323 c 5.08487,-2.62168 7.42066,-8.03872 5.74584,-13.32545 -0.9391,-2.96441 -1.68066,-3.98557 -4.38285,-6.03541 -1.73514,-1.31624 -2.26746,-1.45394 -5.62073,-1.45394 -4.1323,0 -6.32592,0.78758 -8.41366,3.02078 -2.15755,2.30785 -3.03555,4.54552 -3.03386,7.73191 0.001,4.41861 2.25088,8.06741 6.27718,10.1863 2.11799,1.11461 7.15406,1.04827 9.42808,-0.12419 z m -8.10287,-0.56707 c -2.32959,-0.71121 -5.31999,-3.9107 -5.99535,-6.41452 -1.83579,-6.80605 2.59112,-12.61394 9.61125,-12.60949 4.09325,0.002 6.56057,1.54438 8.53573,5.33381 2.23488,4.2877 0.22388,10.62112 -4.06761,12.81048 -2.27909,1.16269 -5.87525,1.55404 -8.08402,0.87972 z m 7.23303,-2.53023 c 2.84094,-1.93353 3.66072,-3.49323 3.66072,-6.96482 0,-3.61411 -0.9105,-5.21526 -3.95602,-6.95677 -2.42814,-1.38848 -4.31893,-1.39063 -7.05573,-0.008 -5.73843,2.89896 -6.00773,10.21465 -0.51235,13.91799 2.23205,1.50419 5.66292,1.50926 7.86338,0.0116 z m -7.29775,-0.49595 c -1.65875,-0.84631 -2.03121,-2.10438 -0.47059,-1.58944 0.64082,0.21142 2.2814,0.48286 3.64574,0.60318 2.16062,0.19049 2.68458,0.0472 4.06176,-1.11175 1.06388,-0.89522 1.74252,-1.16906 2.07448,-0.83711 0.33195,0.33196 -0.11376,0.99385 -1.36274,2.02332 -1.53869,1.26832 -2.27586,1.52872 -4.31071,1.52274 -1.35005,-0.004 -2.98713,-0.27887 -3.63794,-0.61094 z m 1.05476,-2.31544 c -2.85833,-1.73825 -3.21648,-5.3378 -0.75783,-7.6164 3.28565,-3.04504 8.55668,0.17985 7.65585,4.68395 -0.58083,2.90426 -4.32621,4.49649 -6.89802,2.93245 z m 3.9727,-1.98949 c 0.7083,-0.55715 1.28781,-1.47458 1.28781,-2.03874 0,-2.5973 -3.63357,-3.82678 -5.10425,-1.7271 -1.04385,1.49029 -0.95914,2.18119 0.43882,3.57915 1.45864,1.45863 1.74078,1.47423 3.37762,0.18669 z m -8.73103,-0.93786 c -0.24142,-1.42897 -0.0894,-2.43516 0.56799,-3.76126 0.94105,-1.8981 2.11947,-2.70782 2.11947,-1.45636 0,0.40324 -0.27493,0.82508 -0.61096,0.93745 -0.40324,0.13484 -0.6051,1.22876 -0.59381,3.21766 0.0197,3.48724 -0.95501,4.18584 -1.48269,1.06251 z m 12.75931,-2.73234 c -0.46931,-1.22302 -0.35237,-1.67067 0.43645,-1.67067 0.45619,0 0.73315,0.46161 0.73315,1.22189 0,1.36509 -0.71301,1.63866 -1.1696,0.44878 z m -2.4961,-3.19911 c -1.09774,-0.72485 -2.04976,-0.91817 -3.78788,-0.76915 -2.94694,0.25269 -3.20547,-0.84804 -0.37798,-1.60941 1.65569,-0.44583 2.23247,-0.37599 3.89372,0.47152 2.00279,1.02174 3.59552,2.9809 2.36656,2.91099 -0.34546,-0.0197 -1.28795,-0.47142 -2.09442,-1.00395 z"
       id="path826"
       inkscape:connector-curvature="0"
       inkscape:export-filename="D:\Downloads\path826.png"
       inkscape:export-xdpi="268.88684"
       inkscape:export-ydpi="268.88684" />
  </g>
</svg>
