<?xml version="1.0" encoding="UTF-8" standalone="no"?>
<svg
   xmlns:dc="http://purl.org/dc/elements/1.1/"
   xmlns:cc="http://creativecommons.org/ns#"
   xmlns:rdf="http://www.w3.org/1999/02/22-rdf-syntax-ns#"
   xmlns:svg="http://www.w3.org/2000/svg"
   xmlns="http://www.w3.org/2000/svg"
   id="svg8"
   version="1.1"
   viewBox="0 0 210 210"
   height="210mm"
   width="210mm">
  <defs
     id="defs2" />
  <metadata
     id="metadata5">
    <rdf:RDF>
      <cc:Work
         rdf:about="">
        <dc:format>image/svg+xml</dc:format>
        <dc:type
           rdf:resource="http://purl.org/dc/dcmitype/StillImage" />
        <dc:title></dc:title>
      </cc:Work>
    </rdf:RDF>
  </metadata>
  <g
     transform="translate(0,-87)"
     id="layer1">
    <path
       id="path826"
       d="m 0.11339133,296.74437 c 0,-0.24454 0.21377085,-1.19296 0.47504448,-2.10761 0.26127492,-0.91464 1.19175019,-4.24272 2.06772299,-7.3957 0.8759729,-3.15298 1.7056461,-5.88445 1.8437178,-6.06992 0.1380718,-0.18547 2.5578707,-8.77605 5.3773323,-19.09018 L 15.0035,243.32798 12.813038,238.98153 C 9.9968677,233.39351 9.3262232,231.73635 7.2328593,225.19298 3.9507007,214.93371 2.4343521,207.18092 1.7780372,197.30356 1.3937617,191.52033 1.5592536,183.40667 2.1350785,179.79877 4.3010419,166.22768 6.5074396,158.07571 10.59311,148.54891 c 4.573634,-10.66462 11.88762,-21.28702 21.376162,-31.04548 2.04633,-2.10453 4.276082,-4.22901 4.955003,-4.72104 0.678918,-0.49204 2.879264,-2.23007 4.889658,-3.86232 9.810866,-7.96542 21.602191,-14.299946 32.655999,-17.543431 11.831153,-3.471587 20.852427,-4.779173 32.878728,-4.765612 11.4718,0.01287 16.65719,0.711376 26.97743,3.633745 19.47909,5.51586 32.64097,13.240398 46.88927,27.518708 5.48892,5.50045 9.47514,10.4313 13.37885,16.54928 8.91201,13.96706 13.91891,27.49335 15.79036,42.65806 0.75624,6.12794 1.02234,19.05086 0.51128,24.83079 -0.71799,8.12053 -2.53295,16.77206 -4.70286,22.41754 -0.56229,1.46295 -1.71993,4.48089 -2.57251,6.70653 -2.77412,7.24177 -7.57331,16.04202 -12.13745,22.25637 -4.95727,6.74964 -14.97052,16.93451 -21.49987,21.86838 -5.54483,4.18991 -13.33147,8.89683 -19.4258,11.74261 -5.31057,2.47981 -12.62347,5.15431 -15.89406,5.81283 -0.46367,0.0934 -2.96751,0.61977 -5.56408,1.16981 -10.05892,2.13076 -18.94723,2.85256 -29.00073,2.35509 -5.456396,-0.27 -15.035554,-1.60692 -16.977738,-2.36952 -0.492145,-0.19323 -2.042272,-0.63004 -3.444733,-0.97067 -6.199986,-1.50583 -14.981178,-4.78164 -21.265219,-7.93295 l -2.907636,-1.45812 -11.424121,2.97182 c -6.283272,1.6345 -13.548601,3.46646 -16.145178,4.07103 -2.596577,0.60456 -9.574666,2.36988 -15.506862,3.92292 -5.9321965,1.55304 -11.1295673,2.82371 -11.54971157,2.82371 -0.42014563,0 -0.7639001,-0.20007 -0.7639001,-0.44462 z M 118.47685,277.46805 c 10.98999,-1.74103 18.85272,-4.2567 27.82487,-8.90254 10.22949,-5.29687 18.67412,-12.09811 26.63724,-21.45338 10.38112,-12.19597 17.24894,-27.32868 19.58948,-43.16388 0.7305,-4.94236 0.97859,-14.74684 0.49489,-19.55864 -0.22371,-2.22564 -0.48076,-4.9571 -0.57119,-6.06992 -0.35799,-4.40534 -2.32273,-11.60406 -5.06202,-18.54698 -5.21607,-13.22045 -12.50123,-23.51482 -24.15173,-34.12783 -7.46477,-6.80003 -19.19473,-13.35872 -30.93561,-17.29736 -18.18354,-6.09992 -42.172285,-4.82051 -60.020429,3.20108 -9.603935,4.31637 -18.961784,10.52068 -25.93022,17.19191 -8.460722,8.09987 -16.786874,20.698 -20.955041,31.70664 -4.022809,10.62473 -5.769989,19.76867 -5.766076,30.17704 0.0064,16.79918 3.772889,30.25702 13.007907,46.4768 l 1.980012,3.47756 -1.362421,4.95288 c -0.749336,2.72409 -2.696936,9.77002 -4.328006,15.65763 -1.63107,5.88761 -2.872116,10.79822 -2.757882,10.91245 0.211143,0.21115 1.081217,-0.004 20.577744,-5.08035 6.08217,-1.58374 11.342755,-2.87952 11.690191,-2.87952 0.347435,0 2.343812,1.01013 4.436402,2.24474 3.99627,2.35775 8.090871,4.35929 11.763578,5.7503 1.205547,0.45659 2.343659,0.95593 2.529127,1.10965 0.524008,0.43428 8.286664,2.6215 11.96271,3.37063 6.646644,1.3545 10.272436,1.65958 18.218284,1.53295 4.8538,-0.0774 8.86309,-0.32302 11.12819,-0.68186 z m 15.00619,-35.46016 c -6.64441,-0.62218 -8.1153,-0.88535 -12.1522,-2.17418 -19.36851,-6.18362 -32.250209,-14.65244 -46.121085,-30.32137 -7.391985,-8.35018 -14.210448,-17.75135 -17.337161,-23.90414 -3.016621,-5.93616 -4.326169,-11.48099 -4.269937,-18.07947 0.07877,-9.24529 2.346348,-14.93521 8.440065,-21.17858 3.357211,-3.43966 4.275685,-3.78167 10.066676,-3.74852 5.585641,0.032 6.347615,0.30358 7.654449,2.7285 1.783429,3.30928 9.712282,22.99354 9.712282,24.11185 0,1.99009 -2.163722,5.46099 -6.326904,10.14921 -3.184602,3.58622 -3.201337,3.7026 -1.06619,7.41288 7.119874,12.3723 16.739715,21.18824 30.444525,27.90036 3.05056,1.49405 5.95127,2.70015 6.49099,2.69892 0.53669,-0.001 1.36829,-0.26678 1.84803,-0.59013 0.98137,-0.66145 3.76927,-3.8692 7.17301,-8.25324 3.2078,-4.13168 3.62331,-4.41748 6.11789,-4.20803 1.55706,0.13072 3.11118,0.67472 6.74435,2.36075 8.71329,4.04353 17.09917,8.28031 17.94914,9.06841 0.82402,0.76404 0.83916,0.8657 0.6807,4.57102 -0.0891,2.08428 -0.31021,3.98114 -0.49126,4.21522 -0.18105,0.23409 -0.59427,1.41198 -0.91826,2.61754 -0.77661,2.88964 -1.74974,4.48996 -4.12773,6.78808 -5.72994,5.53749 -13.47055,8.49425 -20.51138,7.83492 z"
       style="fill:#000000;stroke-width:0.33721784" />
  </g>
</svg>
